<svg width="782" height="761" viewBox="0 0 782 761" fill="none" xmlns="http://www.w3.org/2000/svg">
<path d="M610.055 331.379C610.055 331.38 610.055 331.38 613.5 332L610.055 331.38L609.698 333.367L611.239 334.672L669.739 384.172L672.973 386.908L675.051 383.216L706.551 327.216L707.912 324.795L705.864 322.919L666.334 286.723L752.972 118.131L777.579 246.635L707.342 284.418L703.277 286.605L706.48 289.929L756.99 342.345L671.986 420.265L615.85 369.406L610.86 364.885L610.027 371.567L613.5 372C610.027 371.567 610.027 371.567 610.027 371.568L610.026 371.573L610.024 371.592L610.014 371.667L609.977 371.964L609.831 373.132C609.703 374.161 609.513 375.681 609.266 377.647C608.773 381.579 608.055 387.294 607.155 394.428C605.354 408.696 602.825 428.635 599.91 451.322C594.079 496.701 586.706 553.059 580.534 597.013C576.116 628.474 564.16 645.323 549.372 654.601C534.363 664.018 515.839 666.044 497.413 666.501C471.786 667.137 403.603 666.89 345.348 666.679C319.622 666.586 295.833 666.5 278.5 666.5C224.065 666.5 180.515 623.074 171.458 565.456C164.983 524.271 158.741 471.216 154.114 428.419C151.801 407.029 149.894 388.216 148.565 374.751C147.9 368.019 147.38 362.624 147.026 358.913C146.849 357.057 146.714 355.623 146.623 354.652C146.577 354.167 146.543 353.798 146.52 353.551L146.494 353.271L146.487 353.201L146.486 353.183L146.485 353.179C146.485 353.178 146.485 353.178 143 353.5L146.485 353.178L146.079 348.791L141.898 350.178L44.1359 382.609L76.3715 266.94L77.0749 264.416L74.8513 263.03L4.03321 218.89L32.5841 108.765L110.156 259.678L74.7528 347.694L71.5303 355.706L79.4215 352.198L137.921 326.198L140.478 325.062L139.933 322.319L139.933 322.318L139.932 322.311L139.926 322.281L139.902 322.157C139.88 322.046 139.847 321.878 139.805 321.654C139.721 321.208 139.597 320.543 139.441 319.677C139.129 317.945 138.69 315.41 138.184 312.214C137.173 305.82 135.897 296.789 134.839 286.261C132.718 265.155 131.499 238.236 134.963 214.506C141.817 167.554 177.678 133.906 212.839 130.484L269.339 124.984L269.366 124.981L269.393 124.978C283.205 123.416 292.717 114.148 299.836 102.188C306.929 90.27 312.038 75.0278 316.827 60.3857C317.053 59.6945 317.278 59.0047 317.503 58.3166C322.107 44.2216 326.473 30.8532 332.104 20.7535C338.009 10.1617 344.716 4.20521 353.581 3.99905C362.293 3.79645 369.012 9.68893 375.024 20.6657C380.727 31.078 385.181 44.9713 389.841 59.5071C390.074 60.2348 390.308 60.9641 390.542 61.6947C395.39 76.7965 400.533 92.418 407.588 104.246C414.664 116.11 424.188 125 438 125H489C520.297 125 552.283 135.081 576.762 152.956C601.209 170.808 618.001 196.283 619.504 227.17C620.489 247.415 618.148 273.416 615.527 294.489C614.22 304.998 612.851 314.229 611.809 320.831C611.288 324.131 610.848 326.774 610.54 328.588C610.461 329.055 610.39 329.466 610.329 329.82C610.271 330.155 610.221 330.439 610.181 330.668L610.129 330.967L610.087 331.203L610.063 331.337L610.057 331.37L610.056 331.378L610.055 331.379Z" fill="#3AFD3E" stroke="#00E706" stroke-width="7"/>
<path d="M359.647 282.263L270.51 151.343C286.137 150.147 297.752 143.099 306.575 132.982C316.457 121.651 322.789 106.537 327.695 91.8241C329.78 85.5721 331.634 79.3059 333.387 73.3776C333.704 72.3081 334.017 71.2496 334.328 70.2041C336.373 63.3196 338.305 57.0224 340.388 51.6609C342.485 46.2596 344.629 42.0969 346.978 39.3262C349.255 36.6413 351.503 35.5 354 35.5C356.544 35.5 358.827 36.6351 361.119 39.2317C363.485 41.911 365.653 45.9341 367.764 51.1477C369.859 56.3235 371.794 62.4026 373.81 69.0354C374.272 70.5547 374.738 72.1032 375.211 73.6734C376.787 78.9083 378.435 84.3848 380.24 89.8268C384.918 103.929 390.823 118.381 399.926 129.027C408.066 138.548 418.757 145.004 433.097 145.591L359.647 282.263Z" fill="#EE7229" stroke="#C44918" stroke-width="7"/>
<g filter="url(#filter0_f)">
<path fill-rule="evenodd" clip-rule="evenodd" d="M430.652 157.533L423.732 170.409C405.27 173.528 352.241 179.176 324 182V146C370.528 141.05 379.816 117.48 370.295 48.123C373.249 55.014 375.825 63.5717 378.572 72.6953C387.439 102.151 398.081 137.505 428.955 141.718C429.739 147.817 430.328 153.196 430.652 157.533Z" fill="black" fill-opacity="0.19"/>
</g>
<g filter="url(#filter1_f)">
<path d="M353 91.5C349.26 110.183 348.5 122 332.555 124C316.61 126 329 108.5 336.5 86.5C342.648 68.4654 347 44 353 44C361.935 45.7888 356.74 72.8169 353 91.5Z" fill="white" fill-opacity="0.34"/>
</g>
<path d="M216.108 151.916H216.201L216.294 151.912L216.108 148.416C216.294 151.912 216.294 151.911 216.296 151.911L216.301 151.911L216.324 151.91L216.415 151.905L216.776 151.886C217.096 151.869 217.571 151.844 218.196 151.812C219.444 151.746 221.286 151.651 223.661 151.529C228.41 151.285 235.288 150.937 243.804 150.519C260.835 149.684 284.415 148.57 310.607 147.456C363.012 145.228 425.804 143.003 467.545 143.003C549.811 143.003 597.59 196.824 593.202 246.658L592.959 249.414C580.196 394.352 574.99 453.469 556.043 593.146C553.297 613.383 549.095 623.751 541.908 630.076C534.564 636.541 523.515 639.38 505.087 642.664C487.194 645.853 455.487 647.008 417.794 646.768C380.195 646.528 336.916 644.905 296.04 642.615C259.859 640.588 235.279 633.194 218.682 618.205C202.119 603.245 192.879 580.146 188.766 545.172C174.084 420.318 159.439 260.584 159.439 224.68C159.439 207.251 164.761 188.907 174.574 175.011C184.348 161.171 198.414 151.916 216.108 151.916Z" fill="#EE7229" stroke="#C44918" stroke-width="7"/>
<path fill-rule="evenodd" clip-rule="evenodd" d="M460.802 139.521C460.548 141.471 460.547 141.471 460.546 141.47L460.563 141.473C460.583 141.475 460.616 141.48 460.664 141.487C460.759 141.501 460.91 141.525 461.114 141.559C461.52 141.627 462.134 141.738 462.925 141.904C464.51 142.237 466.801 142.792 469.562 143.668C475.094 145.425 482.453 148.454 489.793 153.538C504.332 163.607 519.072 181.895 519.072 215.283C519.072 284.339 496.169 538.722 488.603 594.815C484.971 621.749 472.17 633.781 460.681 639.296C454.834 642.102 449.186 643.285 444.989 643.761C442.896 643.998 441.182 644.058 440.008 644.06C439.421 644.061 438.971 644.047 438.679 644.034C438.533 644.027 438.426 644.021 438.361 644.017C438.329 644.015 438.307 644.013 438.296 644.012L438.292 644.012C438.294 644.012 438.296 644.013 438 647.5C437.88 648.916 437.809 649.757 437.767 650.257C441.925 650.222 445.984 650.167 449.931 650.09C454.005 649.324 458.784 647.971 463.71 645.606C477.364 639.052 491.599 624.975 495.54 595.75C503.124 539.525 526.072 284.791 526.072 215.283C526.072 179.388 510.026 159.035 493.779 147.783C488.835 144.359 483.899 141.794 479.433 139.881C475.55 139.631 471.587 139.503 467.545 139.503C465.354 139.503 463.105 139.509 460.802 139.521Z" fill="#C44918"/>
<g filter="url(#filter2_i)">
<path d="M507 312.578C507 312.578 488 287.578 455 285.578C422 283.578 465 286.579 202 297.578C185 298.289 178 312.578 178 312.578L202 528.578C202 528.578 205 525.578 219 525.578H272C272 573.578 357 570.578 357 525.578H447C468 525.578 490 531.578 490 531.578L507 312.578Z" fill="#101010"/>
</g>
<g filter="url(#filter3_f)">
<path fill-rule="evenodd" clip-rule="evenodd" d="M378.75 289.039V309.203C378.75 310.12 378.708 311.026 378.625 311.922C378.542 312.797 378.333 313.578 378 314.265C377.688 314.953 377.208 315.515 376.562 315.953C375.938 316.37 375.083 316.578 374 316.578C372.896 316.578 372.031 316.37 371.406 315.953C370.781 315.515 370.302 314.953 369.969 314.265C369.656 313.578 369.458 312.797 369.375 311.922C369.292 311.026 369.25 310.12 369.25 309.203V289.594C372.584 289.402 375.747 289.217 378.75 289.039Z" fill="#00E706" fill-opacity="0.664"/>
</g>
<path fill-rule="evenodd" clip-rule="evenodd" d="M343.034 291.038C343.002 291.05 342.97 291.064 342.938 291.078C342.771 291.14 342.583 291.224 342.375 291.328C342.021 291.495 341.604 291.797 341.125 292.234C340.646 292.672 340.083 293.203 339.438 293.828C338.792 294.432 338.052 295.088 337.219 295.797C336.406 296.505 335.479 297.203 334.438 297.89C333.938 298.161 333.469 298.422 333.031 298.672C332.594 298.922 332.208 299.203 331.875 299.515C331.542 299.828 331.281 300.203 331.094 300.64C330.906 301.057 330.812 301.557 330.812 302.14C330.812 302.724 330.917 303.276 331.125 303.797C331.354 304.317 331.656 304.786 332.031 305.203C332.406 305.599 332.854 305.922 333.375 306.172C333.917 306.401 334.5 306.515 335.125 306.515C336.229 306.515 337.188 306.338 338 305.984C338.812 305.63 339.562 305.14 340.25 304.515V327.203C340.25 328.12 340.292 329.026 340.375 329.922C340.458 330.797 340.656 331.578 340.969 332.265C341.302 332.953 341.781 333.515 342.406 333.953C343.031 334.37 343.896 334.578 345 334.578C346.083 334.578 346.938 334.37 347.562 333.953C348.208 333.515 348.688 332.953 349 332.265C349.333 331.578 349.542 330.797 349.625 329.922C349.708 329.026 349.75 328.12 349.75 327.203V298.203C349.75 297.307 349.708 296.422 349.625 295.547C349.542 294.672 349.333 293.89 349 293.203C348.688 292.495 348.208 291.922 347.562 291.484C347.122 291.176 346.569 290.976 345.901 290.885C344.956 290.936 344 290.987 343.034 291.038Z" fill="#00E706"/>
<g filter="url(#filter4_f)">
<path d="M354.188 430.328C354.188 428.307 354.469 426.588 355.031 425.172C355.615 423.734 356.354 422.547 357.25 421.609C358.146 420.672 359.135 419.932 360.219 419.39C361.302 418.849 362.354 418.442 363.375 418.172C364.417 417.901 365.344 417.734 366.156 417.672C366.99 417.609 367.604 417.578 368 417.578H369.062C369.458 417.578 370.073 417.609 370.906 417.672C371.74 417.734 372.656 417.901 373.656 418.172C374.677 418.442 375.719 418.849 376.781 419.39C377.865 419.932 378.844 420.672 379.719 421.609C380.615 422.547 381.344 423.734 381.906 425.172C382.469 426.588 382.75 428.307 382.75 430.328V448.765C382.75 450.849 382.469 452.62 381.906 454.078C381.344 455.536 380.615 456.755 379.719 457.734C378.844 458.692 377.865 459.442 376.781 459.984C375.719 460.526 374.677 460.942 373.656 461.234C372.656 461.505 371.74 461.672 370.906 461.734C370.073 461.797 369.458 461.828 369.062 461.828H368C367.604 461.828 366.99 461.797 366.156 461.734C365.344 461.672 364.417 461.505 363.375 461.234C362.354 460.942 361.302 460.526 360.219 459.984C359.135 459.442 358.146 458.692 357.25 457.734C356.354 456.755 355.615 455.536 355.031 454.078C354.469 452.62 354.188 450.849 354.188 448.765V430.328ZM364.438 450.39C364.5 451.12 364.698 451.765 365.031 452.328C365.302 452.807 365.708 453.255 366.25 453.672C366.812 454.067 367.583 454.265 368.562 454.265C369.521 454.265 370.271 454.067 370.812 453.672C371.354 453.255 371.76 452.807 372.031 452.328C372.344 451.765 372.542 451.12 372.625 450.39V429.265C372.542 428.536 372.344 427.89 372.031 427.328C371.76 426.849 371.354 426.411 370.812 426.015C370.271 425.599 369.521 425.39 368.562 425.39C367.583 425.39 366.812 425.599 366.25 426.015C365.708 426.411 365.302 426.849 365.031 427.328C364.698 427.89 364.5 428.536 364.438 429.265V450.39Z" fill="#00E706" fill-opacity="0.696"/>
</g>
<g filter="url(#filter5_f)">
<path d="M313.25 505.515C312.562 506.14 311.812 506.63 311 506.984C310.188 507.338 309.229 507.515 308.125 507.515C307.5 507.515 306.917 507.401 306.375 507.172C305.854 506.922 305.406 506.599 305.031 506.203C304.656 505.786 304.354 505.317 304.125 504.797C303.917 504.276 303.812 503.724 303.812 503.14C303.812 502.557 303.906 502.057 304.094 501.64C304.281 501.203 304.542 500.828 304.875 500.515C305.208 500.203 305.594 499.922 306.031 499.672C306.469 499.422 306.938 499.161 307.438 498.89C308.479 498.203 309.406 497.505 310.219 496.797C311.052 496.088 311.792 495.432 312.438 494.828C313.083 494.203 313.646 493.672 314.125 493.234C314.604 492.797 315.021 492.495 315.375 492.328C315.583 492.224 315.771 492.14 315.938 492.078C316.125 491.995 316.312 491.942 316.5 491.922C316.688 491.88 316.896 491.859 317.125 491.859C317.354 491.838 317.646 491.828 318 491.828C319.083 491.828 319.938 492.047 320.562 492.484C321.208 492.922 321.688 493.495 322 494.203C322.333 494.89 322.542 495.672 322.625 496.547C322.708 497.422 322.75 498.307 322.75 499.203V528.203C322.75 529.12 322.708 530.026 322.625 530.922C322.542 531.797 322.333 532.578 322 533.265C321.688 533.953 321.208 534.515 320.562 534.953C319.938 535.37 319.083 535.578 318 535.578C316.896 535.578 316.031 535.37 315.406 534.953C314.781 534.515 314.302 533.953 313.969 533.265C313.656 532.578 313.458 531.797 313.375 530.922C313.292 530.026 313.25 529.12 313.25 528.203V505.515Z" fill="#00E706" fill-opacity="0.684"/>
</g>
<g filter="url(#filter6_f)">
<path d="M238.25 315.515C237.562 316.14 236.812 316.63 236 316.984C235.188 317.338 234.229 317.515 233.125 317.515C232.5 317.515 231.917 317.401 231.375 317.172C230.854 316.922 230.406 316.599 230.031 316.203C229.656 315.786 229.354 315.317 229.125 314.797C228.917 314.276 228.812 313.724 228.812 313.14C228.812 312.557 228.906 312.057 229.094 311.64C229.281 311.203 229.542 310.828 229.875 310.515C230.208 310.203 230.594 309.922 231.031 309.672C231.469 309.422 231.938 309.161 232.438 308.89C233.479 308.203 234.406 307.505 235.219 306.797C236.052 306.088 236.792 305.432 237.438 304.828C238.083 304.203 238.646 303.672 239.125 303.234C239.604 302.797 240.021 302.495 240.375 302.328C240.583 302.224 240.771 302.14 240.938 302.078C241.125 301.995 241.312 301.942 241.5 301.922C241.688 301.88 241.896 301.859 242.125 301.859C242.354 301.838 242.646 301.828 243 301.828C244.083 301.828 244.938 302.047 245.562 302.484C246.208 302.922 246.688 303.495 247 304.203C247.333 304.89 247.542 305.672 247.625 306.547C247.708 307.422 247.75 308.307 247.75 309.203V338.203C247.75 339.12 247.708 340.026 247.625 340.922C247.542 341.797 247.333 342.578 247 343.265C246.688 343.953 246.208 344.515 245.562 344.953C244.938 345.37 244.083 345.578 243 345.578C241.896 345.578 241.031 345.37 240.406 344.953C239.781 344.515 239.302 343.953 238.969 343.265C238.656 342.578 238.458 341.797 238.375 340.922C238.292 340.026 238.25 339.12 238.25 338.203V315.515Z" fill="#00E706" fill-opacity="0.656"/>
</g>
<g filter="url(#filter7_f)">
<path d="M289.25 311.515C288.562 312.14 287.812 312.63 287 312.984C286.188 313.338 285.229 313.515 284.125 313.515C283.5 313.515 282.917 313.401 282.375 313.172C281.854 312.922 281.406 312.599 281.031 312.203C280.656 311.786 280.354 311.317 280.125 310.797C279.917 310.276 279.812 309.724 279.812 309.14C279.812 308.557 279.906 308.057 280.094 307.64C280.281 307.203 280.542 306.828 280.875 306.515C281.208 306.203 281.594 305.922 282.031 305.672C282.469 305.422 282.938 305.161 283.438 304.89C284.479 304.203 285.406 303.505 286.219 302.797C287.052 302.088 287.792 301.432 288.438 300.828C289.083 300.203 289.646 299.672 290.125 299.234C290.604 298.797 291.021 298.495 291.375 298.328C291.583 298.224 291.771 298.14 291.938 298.078C292.125 297.995 292.312 297.942 292.5 297.922C292.688 297.88 292.896 297.859 293.125 297.859C293.354 297.838 293.646 297.828 294 297.828C295.083 297.828 295.938 298.047 296.562 298.484C297.208 298.922 297.688 299.495 298 300.203C298.333 300.89 298.542 301.672 298.625 302.547C298.708 303.422 298.75 304.307 298.75 305.203V334.203C298.75 335.12 298.708 336.026 298.625 336.922C298.542 337.797 298.333 338.578 298 339.265C297.688 339.953 297.208 340.515 296.562 340.953C295.938 341.37 295.083 341.578 294 341.578C292.896 341.578 292.031 341.37 291.406 340.953C290.781 340.515 290.302 339.953 289.969 339.265C289.656 338.578 289.458 337.797 289.375 336.922C289.292 336.026 289.25 335.12 289.25 334.203V311.515Z" fill="#00E706" fill-opacity="0.744"/>
</g>
<g filter="url(#filter8_f)">
<path d="M432.25 375.515C431.562 376.14 430.812 376.63 430 376.984C429.188 377.338 428.229 377.515 427.125 377.515C426.5 377.515 425.917 377.401 425.375 377.172C424.854 376.922 424.406 376.599 424.031 376.203C423.656 375.786 423.354 375.317 423.125 374.797C422.917 374.276 422.812 373.724 422.812 373.14C422.812 372.557 422.906 372.057 423.094 371.64C423.281 371.203 423.542 370.828 423.875 370.515C424.208 370.203 424.594 369.922 425.031 369.672C425.469 369.422 425.938 369.161 426.438 368.89C427.479 368.203 428.406 367.505 429.219 366.797C430.052 366.088 430.792 365.432 431.438 364.828C432.083 364.203 432.646 363.672 433.125 363.234C433.604 362.797 434.021 362.495 434.375 362.328C434.583 362.224 434.771 362.14 434.938 362.078C435.125 361.995 435.312 361.942 435.5 361.922C435.688 361.88 435.896 361.859 436.125 361.859C436.354 361.838 436.646 361.828 437 361.828C438.083 361.828 438.938 362.047 439.562 362.484C440.208 362.922 440.688 363.495 441 364.203C441.333 364.89 441.542 365.672 441.625 366.547C441.708 367.422 441.75 368.307 441.75 369.203V398.203C441.75 399.12 441.708 400.026 441.625 400.922C441.542 401.797 441.333 402.578 441 403.265C440.688 403.953 440.208 404.515 439.562 404.953C438.938 405.37 438.083 405.578 437 405.578C435.896 405.578 435.031 405.37 434.406 404.953C433.781 404.515 433.302 403.953 432.969 403.265C432.656 402.578 432.458 401.797 432.375 400.922C432.292 400.026 432.25 399.12 432.25 398.203V375.515Z" fill="#00E706" fill-opacity="0.66"/>
</g>
<g filter="url(#filter9_d)">
<path d="M346.25 464.515C345.562 465.14 344.812 465.63 344 465.984C343.188 466.338 342.229 466.515 341.125 466.515C340.5 466.515 339.917 466.401 339.375 466.172C338.854 465.922 338.406 465.599 338.031 465.203C337.656 464.786 337.354 464.317 337.125 463.797C336.917 463.276 336.812 462.724 336.812 462.14C336.812 461.557 336.906 461.057 337.094 460.64C337.281 460.203 337.542 459.828 337.875 459.515C338.208 459.203 338.594 458.922 339.031 458.672C339.469 458.422 339.938 458.161 340.438 457.89C341.479 457.203 342.406 456.505 343.219 455.797C344.052 455.088 344.792 454.432 345.438 453.828C346.083 453.203 346.646 452.672 347.125 452.234C347.604 451.797 348.021 451.495 348.375 451.328C348.583 451.224 348.771 451.14 348.938 451.078C349.125 450.995 349.312 450.942 349.5 450.922C349.688 450.88 349.896 450.859 350.125 450.859C350.354 450.838 350.646 450.828 351 450.828C352.083 450.828 352.938 451.047 353.562 451.484C354.208 451.922 354.688 452.495 355 453.203C355.333 453.89 355.542 454.672 355.625 455.547C355.708 456.422 355.75 457.307 355.75 458.203V487.203C355.75 488.12 355.708 489.026 355.625 489.922C355.542 490.797 355.333 491.578 355 492.265C354.688 492.953 354.208 493.515 353.562 493.953C352.938 494.37 352.083 494.578 351 494.578C349.896 494.578 349.031 494.37 348.406 493.953C347.781 493.515 347.302 492.953 346.969 492.265C346.656 491.578 346.458 490.797 346.375 489.922C346.292 489.026 346.25 488.12 346.25 487.203V464.515Z" fill="#00E706"/>
</g>
<path d="M385.25 483.515C384.562 484.14 383.812 484.63 383 484.984C382.188 485.338 381.229 485.515 380.125 485.515C379.5 485.515 378.917 485.401 378.375 485.172C377.854 484.922 377.406 484.599 377.031 484.203C376.656 483.786 376.354 483.317 376.125 482.797C375.917 482.276 375.812 481.724 375.812 481.14C375.812 480.557 375.906 480.057 376.094 479.64C376.281 479.203 376.542 478.828 376.875 478.515C377.208 478.203 377.594 477.922 378.031 477.672C378.469 477.422 378.938 477.161 379.438 476.89C380.479 476.203 381.406 475.505 382.219 474.797C383.052 474.088 383.792 473.432 384.438 472.828C385.083 472.203 385.646 471.672 386.125 471.234C386.604 470.797 387.021 470.495 387.375 470.328C387.583 470.224 387.771 470.14 387.938 470.078C388.125 469.995 388.312 469.942 388.5 469.922C388.688 469.88 388.896 469.859 389.125 469.859C389.354 469.838 389.646 469.828 390 469.828C391.083 469.828 391.938 470.047 392.562 470.484C393.208 470.922 393.688 471.495 394 472.203C394.333 472.89 394.542 473.672 394.625 474.547C394.708 475.422 394.75 476.307 394.75 477.203V506.203C394.75 507.12 394.708 508.026 394.625 508.922C394.542 509.797 394.333 510.578 394 511.265C393.688 511.953 393.208 512.515 392.562 512.953C391.938 513.37 391.083 513.578 390 513.578C388.896 513.578 388.031 513.37 387.406 512.953C386.781 512.515 386.302 511.953 385.969 511.265C385.656 510.578 385.458 509.797 385.375 508.922C385.292 508.026 385.25 507.12 385.25 506.203V483.515Z" fill="#00E706"/>
<path d="M205.25 474.515C204.562 475.14 203.812 475.63 203 475.984C202.188 476.338 201.229 476.515 200.125 476.515C199.5 476.515 198.917 476.401 198.375 476.172C197.854 475.922 197.406 475.599 197.031 475.203C196.656 474.786 196.354 474.317 196.125 473.797C195.917 473.276 195.812 472.724 195.812 472.14C195.812 471.557 195.906 471.057 196.094 470.64C196.281 470.203 196.542 469.828 196.875 469.515C197.208 469.203 197.594 468.922 198.031 468.672C198.469 468.422 198.938 468.161 199.438 467.89C200.479 467.203 201.406 466.505 202.219 465.797C203.052 465.088 203.792 464.432 204.438 463.828C205.083 463.203 205.646 462.672 206.125 462.234C206.604 461.797 207.021 461.495 207.375 461.328C207.583 461.224 207.771 461.14 207.938 461.078C208.125 460.995 208.312 460.942 208.5 460.922C208.688 460.88 208.896 460.859 209.125 460.859C209.354 460.838 209.646 460.828 210 460.828C211.083 460.828 211.938 461.047 212.562 461.484C213.208 461.922 213.688 462.495 214 463.203C214.333 463.89 214.542 464.672 214.625 465.547C214.708 466.422 214.75 467.307 214.75 468.203V497.203C214.75 498.12 214.708 499.026 214.625 499.922C214.542 500.797 214.333 501.578 214 502.265C213.688 502.953 213.208 503.515 212.562 503.953C211.938 504.37 211.083 504.578 210 504.578C208.896 504.578 208.031 504.37 207.406 503.953C206.781 503.515 206.302 502.953 205.969 502.265C205.656 501.578 205.458 500.797 205.375 499.922C205.292 499.026 205.25 498.12 205.25 497.203V474.515Z" fill="#00E706"/>
<path d="M259.25 468.515C258.562 469.14 257.812 469.63 257 469.984C256.188 470.338 255.229 470.515 254.125 470.515C253.5 470.515 252.917 470.401 252.375 470.172C251.854 469.922 251.406 469.599 251.031 469.203C250.656 468.786 250.354 468.317 250.125 467.797C249.917 467.276 249.812 466.724 249.812 466.14C249.812 465.557 249.906 465.057 250.094 464.64C250.281 464.203 250.542 463.828 250.875 463.515C251.208 463.203 251.594 462.922 252.031 462.672C252.469 462.422 252.938 462.161 253.438 461.89C254.479 461.203 255.406 460.505 256.219 459.797C257.052 459.088 257.792 458.432 258.438 457.828C259.083 457.203 259.646 456.672 260.125 456.234C260.604 455.797 261.021 455.495 261.375 455.328C261.583 455.224 261.771 455.14 261.938 455.078C262.125 454.995 262.312 454.942 262.5 454.922C262.688 454.88 262.896 454.859 263.125 454.859C263.354 454.838 263.646 454.828 264 454.828C265.083 454.828 265.938 455.047 266.562 455.484C267.208 455.922 267.688 456.495 268 457.203C268.333 457.89 268.542 458.672 268.625 459.547C268.708 460.422 268.75 461.307 268.75 462.203V491.203C268.75 492.12 268.708 493.026 268.625 493.922C268.542 494.797 268.333 495.578 268 496.265C267.688 496.953 267.208 497.515 266.562 497.953C265.938 498.37 265.083 498.578 264 498.578C262.896 498.578 262.031 498.37 261.406 497.953C260.781 497.515 260.302 496.953 259.969 496.265C259.656 495.578 259.458 494.797 259.375 493.922C259.292 493.026 259.25 492.12 259.25 491.203V468.515Z" fill="#00E706"/>
<g filter="url(#filter10_f)">
<path d="M216.25 404.515C215.562 405.14 214.812 405.63 214 405.984C213.188 406.338 212.229 406.515 211.125 406.515C210.5 406.515 209.917 406.401 209.375 406.172C208.854 405.922 208.406 405.599 208.031 405.203C207.656 404.786 207.354 404.317 207.125 403.797C206.917 403.276 206.812 402.724 206.812 402.14C206.812 401.557 206.906 401.057 207.094 400.64C207.281 400.203 207.542 399.828 207.875 399.515C208.208 399.203 208.594 398.922 209.031 398.672C209.469 398.422 209.938 398.161 210.438 397.89C211.479 397.203 212.406 396.505 213.219 395.797C214.052 395.088 214.792 394.432 215.438 393.828C216.083 393.203 216.646 392.672 217.125 392.234C217.604 391.797 218.021 391.495 218.375 391.328C218.583 391.224 218.771 391.14 218.938 391.078C219.125 390.995 219.312 390.942 219.5 390.922C219.688 390.88 219.896 390.859 220.125 390.859C220.354 390.838 220.646 390.828 221 390.828C222.083 390.828 222.938 391.047 223.562 391.484C224.208 391.922 224.688 392.495 225 393.203C225.333 393.89 225.542 394.672 225.625 395.547C225.708 396.422 225.75 397.307 225.75 398.203V427.203C225.75 428.12 225.708 429.026 225.625 429.922C225.542 430.797 225.333 431.578 225 432.265C224.688 432.953 224.208 433.515 223.562 433.953C222.938 434.37 222.083 434.578 221 434.578C219.896 434.578 219.031 434.37 218.406 433.953C217.781 433.515 217.302 432.953 216.969 432.265C216.656 431.578 216.458 430.797 216.375 429.922C216.292 429.026 216.25 428.12 216.25 427.203V404.515Z" fill="#00E706" fill-opacity="0.748"/>
</g>
<path d="M196.25 345.515C195.562 346.14 194.812 346.63 194 346.984C193.188 347.338 192.229 347.515 191.125 347.515C190.5 347.515 189.917 347.401 189.375 347.172C188.854 346.922 188.406 346.599 188.031 346.203C187.656 345.786 187.354 345.317 187.125 344.797C186.917 344.276 186.812 343.724 186.812 343.14C186.812 342.557 186.906 342.057 187.094 341.64C187.281 341.203 187.542 340.828 187.875 340.515C188.208 340.203 188.594 339.922 189.031 339.672C189.469 339.422 189.938 339.161 190.438 338.89C191.479 338.203 192.406 337.505 193.219 336.797C194.052 336.088 194.792 335.432 195.438 334.828C196.083 334.203 196.646 333.672 197.125 333.234C197.604 332.797 198.021 332.495 198.375 332.328C198.583 332.224 198.771 332.14 198.938 332.078C199.125 331.995 199.312 331.942 199.5 331.922C199.688 331.88 199.896 331.859 200.125 331.859C200.354 331.838 200.646 331.828 201 331.828C202.083 331.828 202.938 332.047 203.562 332.484C204.208 332.922 204.688 333.495 205 334.203C205.333 334.89 205.542 335.672 205.625 336.547C205.708 337.422 205.75 338.307 205.75 339.203V368.203C205.75 369.12 205.708 370.026 205.625 370.922C205.542 371.797 205.333 372.578 205 373.265C204.688 373.953 204.208 374.515 203.562 374.953C202.938 375.37 202.083 375.578 201 375.578C199.896 375.578 199.031 375.37 198.406 374.953C197.781 374.515 197.302 373.953 196.969 373.265C196.656 372.578 196.458 371.797 196.375 370.922C196.292 370.026 196.25 369.12 196.25 368.203V345.515Z" fill="#00E706"/>
<path d="M228.188 411.328C228.188 409.307 228.469 407.588 229.031 406.172C229.615 404.734 230.354 403.547 231.25 402.609C232.146 401.672 233.135 400.932 234.219 400.39C235.302 399.849 236.354 399.442 237.375 399.172C238.417 398.901 239.344 398.734 240.156 398.672C240.99 398.609 241.604 398.578 242 398.578H243.062C243.458 398.578 244.073 398.609 244.906 398.672C245.74 398.734 246.656 398.901 247.656 399.172C248.677 399.442 249.719 399.849 250.781 400.39C251.865 400.932 252.844 401.672 253.719 402.609C254.615 403.547 255.344 404.734 255.906 406.172C256.469 407.588 256.75 409.307 256.75 411.328V429.765C256.75 431.849 256.469 433.62 255.906 435.078C255.344 436.536 254.615 437.755 253.719 438.734C252.844 439.692 251.865 440.442 250.781 440.984C249.719 441.526 248.677 441.942 247.656 442.234C246.656 442.505 245.74 442.672 244.906 442.734C244.073 442.797 243.458 442.828 243.062 442.828H242C241.604 442.828 240.99 442.797 240.156 442.734C239.344 442.672 238.417 442.505 237.375 442.234C236.354 441.942 235.302 441.526 234.219 440.984C233.135 440.442 232.146 439.692 231.25 438.734C230.354 437.755 229.615 436.536 229.031 435.078C228.469 433.62 228.188 431.849 228.188 429.765V411.328ZM238.438 431.39C238.5 432.12 238.698 432.765 239.031 433.328C239.302 433.807 239.708 434.255 240.25 434.672C240.812 435.067 241.583 435.265 242.562 435.265C243.521 435.265 244.271 435.067 244.812 434.672C245.354 434.255 245.76 433.807 246.031 433.328C246.344 432.765 246.542 432.12 246.625 431.39V410.265C246.542 409.536 246.344 408.89 246.031 408.328C245.76 407.849 245.354 407.411 244.812 407.015C244.271 406.599 243.521 406.39 242.562 406.39C241.583 406.39 240.812 406.599 240.25 407.015C239.708 407.411 239.302 407.849 239.031 408.328C238.698 408.89 238.5 409.536 238.438 410.265V431.39Z" fill="#00E706"/>
<g filter="url(#filter11_f)">
<path d="M286.188 459.328C286.188 457.307 286.469 455.588 287.031 454.172C287.615 452.734 288.354 451.547 289.25 450.609C290.146 449.672 291.135 448.932 292.219 448.39C293.302 447.849 294.354 447.442 295.375 447.172C296.417 446.901 297.344 446.734 298.156 446.672C298.99 446.609 299.604 446.578 300 446.578H301.062C301.458 446.578 302.073 446.609 302.906 446.672C303.74 446.734 304.656 446.901 305.656 447.172C306.677 447.442 307.719 447.849 308.781 448.39C309.865 448.932 310.844 449.672 311.719 450.609C312.615 451.547 313.344 452.734 313.906 454.172C314.469 455.588 314.75 457.307 314.75 459.328V477.765C314.75 479.849 314.469 481.62 313.906 483.078C313.344 484.536 312.615 485.755 311.719 486.734C310.844 487.692 309.865 488.442 308.781 488.984C307.719 489.526 306.677 489.942 305.656 490.234C304.656 490.505 303.74 490.672 302.906 490.734C302.073 490.797 301.458 490.828 301.062 490.828H300C299.604 490.828 298.99 490.797 298.156 490.734C297.344 490.672 296.417 490.505 295.375 490.234C294.354 489.942 293.302 489.526 292.219 488.984C291.135 488.442 290.146 487.692 289.25 486.734C288.354 485.755 287.615 484.536 287.031 483.078C286.469 481.62 286.188 479.849 286.188 477.765V459.328ZM296.438 479.39C296.5 480.12 296.698 480.765 297.031 481.328C297.302 481.807 297.708 482.255 298.25 482.672C298.812 483.067 299.583 483.265 300.562 483.265C301.521 483.265 302.271 483.067 302.812 482.672C303.354 482.255 303.76 481.807 304.031 481.328C304.344 480.765 304.542 480.12 304.625 479.39V458.265C304.542 457.536 304.344 456.89 304.031 456.328C303.76 455.849 303.354 455.411 302.812 455.015C302.271 454.599 301.521 454.39 300.562 454.39C299.583 454.39 298.812 454.599 298.25 455.015C297.708 455.411 297.302 455.849 297.031 456.328C296.698 456.89 296.5 457.536 296.438 458.265V479.39Z" fill="#00E706" fill-opacity="0.84"/>
</g>
<path d="M399.188 389.328C399.188 387.307 399.469 385.588 400.031 384.172C400.615 382.734 401.354 381.547 402.25 380.609C403.146 379.672 404.135 378.932 405.219 378.39C406.302 377.849 407.354 377.442 408.375 377.172C409.417 376.901 410.344 376.734 411.156 376.672C411.99 376.609 412.604 376.578 413 376.578H414.062C414.458 376.578 415.073 376.609 415.906 376.672C416.74 376.734 417.656 376.901 418.656 377.172C419.677 377.442 420.719 377.849 421.781 378.39C422.865 378.932 423.844 379.672 424.719 380.609C425.615 381.547 426.344 382.734 426.906 384.172C427.469 385.588 427.75 387.307 427.75 389.328V407.765C427.75 409.849 427.469 411.62 426.906 413.078C426.344 414.536 425.615 415.755 424.719 416.734C423.844 417.692 422.865 418.442 421.781 418.984C420.719 419.526 419.677 419.942 418.656 420.234C417.656 420.505 416.74 420.672 415.906 420.734C415.073 420.797 414.458 420.828 414.062 420.828H413C412.604 420.828 411.99 420.797 411.156 420.734C410.344 420.672 409.417 420.505 408.375 420.234C407.354 419.942 406.302 419.526 405.219 418.984C404.135 418.442 403.146 417.692 402.25 416.734C401.354 415.755 400.615 414.536 400.031 413.078C399.469 411.62 399.188 409.849 399.188 407.765V389.328ZM409.438 409.39C409.5 410.12 409.698 410.765 410.031 411.328C410.302 411.807 410.708 412.255 411.25 412.672C411.812 413.067 412.583 413.265 413.562 413.265C414.521 413.265 415.271 413.067 415.812 412.672C416.354 412.255 416.76 411.807 417.031 411.328C417.344 410.765 417.542 410.12 417.625 409.39V388.265C417.542 387.536 417.344 386.89 417.031 386.328C416.76 385.849 416.354 385.411 415.812 385.015C415.271 384.599 414.521 384.39 413.562 384.39C412.583 384.39 411.812 384.599 411.25 385.015C410.708 385.411 410.302 385.849 410.031 386.328C409.698 386.89 409.5 387.536 409.438 388.265V409.39Z" fill="#00E706"/>
<path d="M406.188 318.328C406.188 316.307 406.469 314.588 407.031 313.172C407.615 311.734 408.354 310.547 409.25 309.609C410.146 308.672 411.135 307.932 412.219 307.39C413.302 306.849 414.354 306.442 415.375 306.172C416.417 305.901 417.344 305.734 418.156 305.672C418.99 305.609 419.604 305.578 420 305.578H421.062C421.458 305.578 422.073 305.609 422.906 305.672C423.74 305.734 424.656 305.901 425.656 306.172C426.677 306.442 427.719 306.849 428.781 307.39C429.865 307.932 430.844 308.672 431.719 309.609C432.615 310.547 433.344 311.734 433.906 313.172C434.469 314.588 434.75 316.307 434.75 318.328V336.765C434.75 338.849 434.469 340.62 433.906 342.078C433.344 343.536 432.615 344.755 431.719 345.734C430.844 346.692 429.865 347.442 428.781 347.984C427.719 348.526 426.677 348.942 425.656 349.234C424.656 349.505 423.74 349.672 422.906 349.734C422.073 349.797 421.458 349.828 421.062 349.828H420C419.604 349.828 418.99 349.797 418.156 349.734C417.344 349.672 416.417 349.505 415.375 349.234C414.354 348.942 413.302 348.526 412.219 347.984C411.135 347.442 410.146 346.692 409.25 345.734C408.354 344.755 407.615 343.536 407.031 342.078C406.469 340.62 406.188 338.849 406.188 336.765V318.328ZM416.438 338.39C416.5 339.12 416.698 339.765 417.031 340.328C417.302 340.807 417.708 341.255 418.25 341.672C418.812 342.067 419.583 342.265 420.562 342.265C421.521 342.265 422.271 342.067 422.812 341.672C423.354 341.255 423.76 340.807 424.031 340.328C424.344 339.765 424.542 339.12 424.625 338.39V317.265C424.542 316.536 424.344 315.89 424.031 315.328C423.76 314.849 423.354 314.411 422.812 314.015C422.271 313.599 421.521 313.39 420.562 313.39C419.583 313.39 418.812 313.599 418.25 314.015C417.708 314.411 417.302 314.849 417.031 315.328C416.698 315.89 416.5 316.536 416.438 317.265V338.39Z" fill="#00E706"/>
<g filter="url(#filter12_f)">
<path d="M418.188 490.328C418.188 488.307 418.469 486.588 419.031 485.172C419.615 483.734 420.354 482.547 421.25 481.609C422.146 480.672 423.135 479.932 424.219 479.39C425.302 478.849 426.354 478.442 427.375 478.172C428.417 477.901 429.344 477.734 430.156 477.672C430.99 477.609 431.604 477.578 432 477.578H433.062C433.458 477.578 434.073 477.609 434.906 477.672C435.74 477.734 436.656 477.901 437.656 478.172C438.677 478.442 439.719 478.849 440.781 479.39C441.865 479.932 442.844 480.672 443.719 481.609C444.615 482.547 445.344 483.734 445.906 485.172C446.469 486.588 446.75 488.307 446.75 490.328V508.765C446.75 510.849 446.469 512.62 445.906 514.078C445.344 515.536 444.615 516.755 443.719 517.734C442.844 518.692 441.865 519.442 440.781 519.984C439.719 520.526 438.677 520.942 437.656 521.234C436.656 521.505 435.74 521.672 434.906 521.734C434.073 521.797 433.458 521.828 433.062 521.828H432C431.604 521.828 430.99 521.797 430.156 521.734C429.344 521.672 428.417 521.505 427.375 521.234C426.354 520.942 425.302 520.526 424.219 519.984C423.135 519.442 422.146 518.692 421.25 517.734C420.354 516.755 419.615 515.536 419.031 514.078C418.469 512.62 418.188 510.849 418.188 508.765V490.328ZM428.438 510.39C428.5 511.12 428.698 511.765 429.031 512.328C429.302 512.807 429.708 513.255 430.25 513.672C430.812 514.067 431.583 514.265 432.562 514.265C433.521 514.265 434.271 514.067 434.812 513.672C435.354 513.255 435.76 512.807 436.031 512.328C436.344 511.765 436.542 511.12 436.625 510.39V489.265C436.542 488.536 436.344 487.89 436.031 487.328C435.76 486.849 435.354 486.411 434.812 486.015C434.271 485.599 433.521 485.39 432.562 485.39C431.583 485.39 430.812 485.599 430.25 486.015C429.708 486.411 429.302 486.849 429.031 487.328C428.698 487.89 428.5 488.536 428.438 489.265V510.39Z" fill="#00E706" fill-opacity="0.916"/>
</g>
<g filter="url(#filter13_d)">
<path d="M358.188 318.328C358.188 316.307 358.469 314.588 359.031 313.172C359.615 311.734 360.354 310.547 361.25 309.609C362.146 308.672 363.135 307.932 364.219 307.39C365.302 306.849 366.354 306.442 367.375 306.172C368.417 305.901 369.344 305.734 370.156 305.672C370.99 305.609 371.604 305.578 372 305.578H373.062C373.458 305.578 374.073 305.609 374.906 305.672C375.74 305.734 376.656 305.901 377.656 306.172C378.677 306.442 379.719 306.849 380.781 307.39C381.865 307.932 382.844 308.672 383.719 309.609C384.615 310.547 385.344 311.734 385.906 313.172C386.469 314.588 386.75 316.307 386.75 318.328V336.765C386.75 338.849 386.469 340.62 385.906 342.078C385.344 343.536 384.615 344.755 383.719 345.734C382.844 346.692 381.865 347.442 380.781 347.984C379.719 348.526 378.677 348.942 377.656 349.234C376.656 349.505 375.74 349.672 374.906 349.734C374.073 349.797 373.458 349.828 373.062 349.828H372C371.604 349.828 370.99 349.797 370.156 349.734C369.344 349.672 368.417 349.505 367.375 349.234C366.354 348.942 365.302 348.526 364.219 347.984C363.135 347.442 362.146 346.692 361.25 345.734C360.354 344.755 359.615 343.536 359.031 342.078C358.469 340.62 358.188 338.849 358.188 336.765V318.328ZM368.438 338.39C368.5 339.12 368.698 339.765 369.031 340.328C369.302 340.807 369.708 341.255 370.25 341.672C370.812 342.067 371.583 342.265 372.562 342.265C373.521 342.265 374.271 342.067 374.812 341.672C375.354 341.255 375.76 340.807 376.031 340.328C376.344 339.765 376.542 339.12 376.625 338.39V317.265C376.542 316.536 376.344 315.89 376.031 315.328C375.76 314.849 375.354 314.411 374.812 314.015C374.271 313.599 373.521 313.39 372.562 313.39C371.583 313.39 370.812 313.599 370.25 314.015C369.708 314.411 369.302 314.849 369.031 315.328C368.698 315.89 368.5 316.536 368.438 317.265V338.39Z" fill="#00E706"/>
</g>
<path d="M248.188 351.328C248.188 349.307 248.469 347.588 249.031 346.172C249.615 344.734 250.354 343.547 251.25 342.609C252.146 341.672 253.135 340.932 254.219 340.39C255.302 339.849 256.354 339.442 257.375 339.172C258.417 338.901 259.344 338.734 260.156 338.672C260.99 338.609 261.604 338.578 262 338.578H263.062C263.458 338.578 264.073 338.609 264.906 338.672C265.74 338.734 266.656 338.901 267.656 339.172C268.677 339.442 269.719 339.849 270.781 340.39C271.865 340.932 272.844 341.672 273.719 342.609C274.615 343.547 275.344 344.734 275.906 346.172C276.469 347.588 276.75 349.307 276.75 351.328V369.765C276.75 371.849 276.469 373.62 275.906 375.078C275.344 376.536 274.615 377.755 273.719 378.734C272.844 379.692 271.865 380.442 270.781 380.984C269.719 381.526 268.677 381.942 267.656 382.234C266.656 382.505 265.74 382.672 264.906 382.734C264.073 382.797 263.458 382.828 263.062 382.828H262C261.604 382.828 260.99 382.797 260.156 382.734C259.344 382.672 258.417 382.505 257.375 382.234C256.354 381.942 255.302 381.526 254.219 380.984C253.135 380.442 252.146 379.692 251.25 378.734C250.354 377.755 249.615 376.536 249.031 375.078C248.469 373.62 248.188 371.849 248.188 369.765V351.328ZM258.438 371.39C258.5 372.12 258.698 372.765 259.031 373.328C259.302 373.807 259.708 374.255 260.25 374.672C260.812 375.067 261.583 375.265 262.562 375.265C263.521 375.265 264.271 375.067 264.812 374.672C265.354 374.255 265.76 373.807 266.031 373.328C266.344 372.765 266.542 372.12 266.625 371.39V350.265C266.542 349.536 266.344 348.89 266.031 348.328C265.76 347.849 265.354 347.411 264.812 347.015C264.271 346.599 263.521 346.39 262.562 346.39C261.583 346.39 260.812 346.599 260.25 347.015C259.708 347.411 259.302 347.849 259.031 348.328C258.698 348.89 258.5 349.536 258.438 350.265V371.39Z" fill="#00E706"/>
<path d="M318.188 351.328C318.188 349.307 318.469 347.588 319.031 346.172C319.615 344.734 320.354 343.547 321.25 342.609C322.146 341.672 323.135 340.932 324.219 340.39C325.302 339.849 326.354 339.442 327.375 339.172C328.417 338.901 329.344 338.734 330.156 338.672C330.99 338.609 331.604 338.578 332 338.578H333.062C333.458 338.578 334.073 338.609 334.906 338.672C335.74 338.734 336.656 338.901 337.656 339.172C338.677 339.442 339.719 339.849 340.781 340.39C341.865 340.932 342.844 341.672 343.719 342.609C344.615 343.547 345.344 344.734 345.906 346.172C346.469 347.588 346.75 349.307 346.75 351.328V369.765C346.75 371.849 346.469 373.62 345.906 375.078C345.344 376.536 344.615 377.755 343.719 378.734C342.844 379.692 341.865 380.442 340.781 380.984C339.719 381.526 338.677 381.942 337.656 382.234C336.656 382.505 335.74 382.672 334.906 382.734C334.073 382.797 333.458 382.828 333.062 382.828H332C331.604 382.828 330.99 382.797 330.156 382.734C329.344 382.672 328.417 382.505 327.375 382.234C326.354 381.942 325.302 381.526 324.219 380.984C323.135 380.442 322.146 379.692 321.25 378.734C320.354 377.755 319.615 376.536 319.031 375.078C318.469 373.62 318.188 371.849 318.188 369.765V351.328ZM328.438 371.39C328.5 372.12 328.698 372.765 329.031 373.328C329.302 373.807 329.708 374.255 330.25 374.672C330.812 375.067 331.583 375.265 332.562 375.265C333.521 375.265 334.271 375.067 334.812 374.672C335.354 374.255 335.76 373.807 336.031 373.328C336.344 372.765 336.542 372.12 336.625 371.39V350.265C336.542 349.536 336.344 348.89 336.031 348.328C335.76 347.849 335.354 347.411 334.812 347.015C334.271 346.599 333.521 346.39 332.562 346.39C331.583 346.39 330.812 346.599 330.25 347.015C329.708 347.411 329.302 347.849 329.031 348.328C328.698 348.89 328.5 349.536 328.438 350.265V371.39Z" fill="#00E706"/>
<g filter="url(#filter14_f)">
<path d="M228.188 482.328C228.188 480.307 228.469 478.588 229.031 477.172C229.615 475.734 230.354 474.547 231.25 473.609C232.146 472.672 233.135 471.932 234.219 471.39C235.302 470.849 236.354 470.442 237.375 470.172C238.417 469.901 239.344 469.734 240.156 469.672C240.99 469.609 241.604 469.578 242 469.578H243.062C243.458 469.578 244.073 469.609 244.906 469.672C245.74 469.734 246.656 469.901 247.656 470.172C248.677 470.442 249.719 470.849 250.781 471.39C251.865 471.932 252.844 472.672 253.719 473.609C254.615 474.547 255.344 475.734 255.906 477.172C256.469 478.588 256.75 480.307 256.75 482.328V500.765C256.75 502.849 256.469 504.62 255.906 506.078C255.344 507.536 254.615 508.755 253.719 509.734C252.844 510.692 251.865 511.442 250.781 511.984C249.719 512.526 248.677 512.942 247.656 513.234C246.656 513.505 245.74 513.672 244.906 513.734C244.073 513.797 243.458 513.828 243.062 513.828H242C241.604 513.828 240.99 513.797 240.156 513.734C239.344 513.672 238.417 513.505 237.375 513.234C236.354 512.942 235.302 512.526 234.219 511.984C233.135 511.442 232.146 510.692 231.25 509.734C230.354 508.755 229.615 507.536 229.031 506.078C228.469 504.62 228.188 502.849 228.188 500.765V482.328ZM238.438 502.39C238.5 503.12 238.698 503.765 239.031 504.328C239.302 504.807 239.708 505.255 240.25 505.672C240.812 506.067 241.583 506.265 242.562 506.265C243.521 506.265 244.271 506.067 244.812 505.672C245.354 505.255 245.76 504.807 246.031 504.328C246.344 503.765 246.542 503.12 246.625 502.39V481.265C246.542 480.536 246.344 479.89 246.031 479.328C245.76 478.849 245.354 478.411 244.812 478.015C244.271 477.599 243.521 477.39 242.562 477.39C241.583 477.39 240.812 477.599 240.25 478.015C239.708 478.411 239.302 478.849 239.031 479.328C238.698 479.89 238.5 480.536 238.438 481.265V502.39Z" fill="#00E706" fill-opacity="0.804"/>
</g>
<g filter="url(#filter15_f)">
<path d="M461.188 329.328C461.188 327.307 461.469 325.588 462.031 324.172C462.615 322.734 463.354 321.547 464.25 320.609C465.146 319.672 466.135 318.932 467.219 318.39C468.302 317.849 469.354 317.442 470.375 317.172C471.417 316.901 472.344 316.734 473.156 316.672C473.99 316.609 474.604 316.578 475 316.578H476.062C476.458 316.578 477.073 316.609 477.906 316.672C478.74 316.734 479.656 316.901 480.656 317.172C481.677 317.442 482.719 317.849 483.781 318.39C484.865 318.932 485.844 319.672 486.719 320.609C487.615 321.547 488.344 322.734 488.906 324.172C489.469 325.588 489.75 327.307 489.75 329.328V347.765C489.75 349.849 489.469 351.62 488.906 353.078C488.344 354.536 487.615 355.755 486.719 356.734C485.844 357.692 484.865 358.442 483.781 358.984C482.719 359.526 481.677 359.942 480.656 360.234C479.656 360.505 478.74 360.672 477.906 360.734C477.073 360.797 476.458 360.828 476.062 360.828H475C474.604 360.828 473.99 360.797 473.156 360.734C472.344 360.672 471.417 360.505 470.375 360.234C469.354 359.942 468.302 359.526 467.219 358.984C466.135 358.442 465.146 357.692 464.25 356.734C463.354 355.755 462.615 354.536 462.031 353.078C461.469 351.62 461.188 349.849 461.188 347.765V329.328ZM471.438 349.39C471.5 350.12 471.698 350.765 472.031 351.328C472.302 351.807 472.708 352.255 473.25 352.672C473.812 353.067 474.583 353.265 475.562 353.265C476.521 353.265 477.271 353.067 477.812 352.672C478.354 352.255 478.76 351.807 479.031 351.328C479.344 350.765 479.542 350.12 479.625 349.39V328.265C479.542 327.536 479.344 326.89 479.031 326.328C478.76 325.849 478.354 325.411 477.812 325.015C477.271 324.599 476.521 324.39 475.562 324.39C474.583 324.39 473.812 324.599 473.25 325.015C472.708 325.411 472.302 325.849 472.031 326.328C471.698 326.89 471.5 327.536 471.438 328.265V349.39Z" fill="#00E706" fill-opacity="0.808"/>
</g>
<g filter="url(#filter16_d)">
<path d="M465.25 364.515C464.562 365.14 463.812 365.63 463 365.984C462.188 366.338 461.229 366.515 460.125 366.515C459.5 366.515 458.917 366.401 458.375 366.172C457.854 365.922 457.406 365.599 457.031 365.203C456.656 364.786 456.354 364.317 456.125 363.797C455.917 363.276 455.812 362.724 455.812 362.14C455.812 361.557 455.906 361.057 456.094 360.64C456.281 360.203 456.542 359.828 456.875 359.515C457.208 359.203 457.594 358.922 458.031 358.672C458.469 358.422 458.938 358.161 459.438 357.89C460.479 357.203 461.406 356.505 462.219 355.797C463.052 355.088 463.792 354.432 464.438 353.828C465.083 353.203 465.646 352.672 466.125 352.234C466.604 351.797 467.021 351.495 467.375 351.328C467.583 351.224 467.771 351.14 467.938 351.078C468.125 350.995 468.312 350.942 468.5 350.922C468.688 350.88 468.896 350.859 469.125 350.859C469.354 350.838 469.646 350.828 470 350.828C471.083 350.828 471.938 351.047 472.562 351.484C473.208 351.922 473.688 352.495 474 353.203C474.333 353.89 474.542 354.672 474.625 355.547C474.708 356.422 474.75 357.307 474.75 358.203V387.203C474.75 388.12 474.708 389.026 474.625 389.922C474.542 390.797 474.333 391.578 474 392.265C473.688 392.953 473.208 393.515 472.562 393.953C471.938 394.37 471.083 394.578 470 394.578C468.896 394.578 468.031 394.37 467.406 393.953C466.781 393.515 466.302 392.953 465.969 392.265C465.656 391.578 465.458 390.797 465.375 389.922C465.292 389.026 465.25 388.12 465.25 387.203V364.515Z" fill="#00E706"/>
</g>
<path d="M440.188 419.328C440.188 417.307 440.469 415.588 441.031 414.172C441.615 412.734 442.354 411.547 443.25 410.609C444.146 409.672 445.135 408.932 446.219 408.39C447.302 407.849 448.354 407.442 449.375 407.172C450.417 406.901 451.344 406.734 452.156 406.672C452.99 406.609 453.604 406.578 454 406.578H455.062C455.458 406.578 456.073 406.609 456.906 406.672C457.74 406.734 458.656 406.901 459.656 407.172C460.677 407.442 461.719 407.849 462.781 408.39C463.865 408.932 464.844 409.672 465.719 410.609C466.615 411.547 467.344 412.734 467.906 414.172C468.469 415.588 468.75 417.307 468.75 419.328V437.765C468.75 439.849 468.469 441.62 467.906 443.078C467.344 444.536 466.615 445.755 465.719 446.734C464.844 447.692 463.865 448.442 462.781 448.984C461.719 449.526 460.677 449.942 459.656 450.234C458.656 450.505 457.74 450.672 456.906 450.734C456.073 450.797 455.458 450.828 455.062 450.828H454C453.604 450.828 452.99 450.797 452.156 450.734C451.344 450.672 450.417 450.505 449.375 450.234C448.354 449.942 447.302 449.526 446.219 448.984C445.135 448.442 444.146 447.692 443.25 446.734C442.354 445.755 441.615 444.536 441.031 443.078C440.469 441.62 440.188 439.849 440.188 437.765V419.328ZM450.438 439.39C450.5 440.12 450.698 440.765 451.031 441.328C451.302 441.807 451.708 442.255 452.25 442.672C452.812 443.067 453.583 443.265 454.562 443.265C455.521 443.265 456.271 443.067 456.812 442.672C457.354 442.255 457.76 441.807 458.031 441.328C458.344 440.765 458.542 440.12 458.625 439.39V418.265C458.542 417.536 458.344 416.89 458.031 416.328C457.76 415.849 457.354 415.411 456.812 415.015C456.271 414.599 455.521 414.39 454.562 414.39C453.583 414.39 452.812 414.599 452.25 415.015C451.708 415.411 451.302 415.849 451.031 416.328C450.698 416.89 450.5 417.536 450.438 418.265V439.39Z" fill="#00E706"/>
<path d="M468.25 477.515C467.562 478.14 466.812 478.63 466 478.984C465.188 479.338 464.229 479.515 463.125 479.515C462.5 479.515 461.917 479.401 461.375 479.172C460.854 478.922 460.406 478.599 460.031 478.203C459.656 477.786 459.354 477.317 459.125 476.797C458.917 476.276 458.812 475.724 458.812 475.14C458.812 474.557 458.906 474.057 459.094 473.64C459.281 473.203 459.542 472.828 459.875 472.515C460.208 472.203 460.594 471.922 461.031 471.672C461.469 471.422 461.938 471.161 462.438 470.89C463.479 470.203 464.406 469.505 465.219 468.797C466.052 468.088 466.792 467.432 467.438 466.828C468.083 466.203 468.646 465.672 469.125 465.234C469.604 464.797 470.021 464.495 470.375 464.328C470.583 464.224 470.771 464.14 470.938 464.078C471.125 463.995 471.312 463.942 471.5 463.922C471.688 463.88 471.896 463.859 472.125 463.859C472.354 463.838 472.646 463.828 473 463.828C474.083 463.828 474.938 464.047 475.562 464.484C476.208 464.922 476.688 465.495 477 466.203C477.333 466.89 477.542 467.672 477.625 468.547C477.708 469.422 477.75 470.307 477.75 471.203V500.203C477.75 501.12 477.708 502.026 477.625 502.922C477.542 503.797 477.333 504.578 477 505.265C476.688 505.953 476.208 506.515 475.562 506.953C474.938 507.37 474.083 507.578 473 507.578C471.896 507.578 471.031 507.37 470.406 506.953C469.781 506.515 469.302 505.953 468.969 505.265C468.656 504.578 468.458 503.797 468.375 502.922C468.292 502.026 468.25 501.12 468.25 500.203V477.515Z" fill="#00E706"/>
<path d="M278.632 437.092L278.692 440.562L282.163 440.531L340.546 440.011L340.594 440.011L340.641 440.009C354.247 439.517 368.429 434.741 379.228 427.812C389.804 421.027 398.207 411.434 398.025 400.889C397.84 390.208 388.619 381.387 377.688 375.643C366.514 369.772 352.204 366.34 339.246 367.069L280.94 368.076L277.441 368.137L277.501 371.636L278.042 402.962L278.632 437.092Z" fill="#252525" stroke="#93F896" stroke-width="7"/>
<g filter="url(#filter17_f)">
<path fill-rule="evenodd" clip-rule="evenodd" d="M373.496 141.524C473.261 157.522 477.962 181.448 474.883 226.661C473.821 242.252 472.843 268.164 471.623 300.475C469.037 369.002 465.363 466.312 457.5 555C453.304 602.321 439.996 632 379.5 632H308C240.468 632 209.511 625.309 178.057 481.326C180.423 503.228 182.857 524.887 185.29 545.581C193.597 616.218 222.923 642.024 295.844 646.11C377.673 650.694 469.202 652.614 505.701 646.11C542.201 639.605 553.984 634.363 559.511 593.617C578.469 453.857 583.681 394.676 596.446 249.721L596.688 246.965C601.311 194.472 551.195 139.503 467.545 139.503C441.738 139.503 407.923 140.351 373.496 141.524Z" fill="black" fill-opacity="0.192"/>
</g>
<g filter="url(#filter18_f)">
<path d="M227 190.5C227 205.136 216.031 217 202.5 217C188.969 217 178 205.136 178 190.5C178 175.864 188.969 165 202.5 165C216.031 165 227 175.864 227 190.5Z" fill="white" fill-opacity="0.34"/>
</g>
<path d="M283 253L304.05 231.95C306.784 229.216 311.216 229.216 313.95 231.95L335 253" stroke="black" stroke-opacity="0.668" stroke-width="8" stroke-linecap="round"/>
<path d="M399.933 216.538C397.139 225.456 392.336 232.598 387.06 236.998C381.741 241.434 376.473 242.721 372.234 241.393C367.995 240.065 364.404 236.002 362.567 229.324C360.745 222.699 360.877 214.094 363.671 205.176C366.466 196.258 371.268 189.116 376.544 184.715C381.864 180.279 387.131 178.992 391.37 180.32C395.609 181.649 399.2 185.711 401.037 192.39C402.859 199.014 402.727 207.62 399.933 216.538Z" fill="#6938AB" stroke="white" stroke-width="9"/>
<path d="M266.675 208.689C268.455 217.863 267.624 226.43 265.074 232.809C262.502 239.24 258.48 242.876 254.118 243.722C249.757 244.568 244.667 242.701 239.877 237.698C235.125 232.736 231.151 225.102 229.371 215.928C227.59 206.753 228.421 198.187 230.972 191.808C233.543 185.376 237.566 181.74 241.927 180.894C246.288 180.048 251.378 181.915 256.169 186.918C260.92 191.88 264.895 199.514 266.675 208.689Z" fill="#6938AB" stroke="white" stroke-width="9"/>
<path fill-rule="evenodd" clip-rule="evenodd" d="M262.887 213.788L271.752 212.077C271.588 210.675 271.369 209.258 271.092 207.832C270.919 206.938 270.726 206.056 270.514 205.187L261.665 206.895C261.884 207.759 262.082 208.643 262.257 209.546C262.536 210.985 262.744 212.401 262.887 213.788ZM233.341 212.361C233.463 213.254 233.611 214.157 233.788 215.07C234.065 216.499 234.4 217.881 234.783 219.212L225.916 220.923C225.549 219.575 225.227 218.195 224.953 216.785C224.777 215.875 224.623 214.969 224.493 214.068L233.341 212.361Z" fill="black"/>
<path fill-rule="evenodd" clip-rule="evenodd" d="M393.844 220.005L402.52 222.598C403.147 221.079 403.719 219.505 404.227 217.883C404.427 217.245 404.615 216.608 404.79 215.971L396.165 213.393C396.003 213.99 395.828 214.589 395.639 215.192C395.111 216.876 394.508 218.483 393.844 220.005ZM368.434 205.104C368.272 205.57 368.115 206.042 367.965 206.521C367.398 208.333 366.953 210.121 366.621 211.868L357.96 209.279C358.334 207.475 358.805 205.655 359.377 203.83C359.515 203.391 359.657 202.956 359.804 202.524L368.434 205.104Z" fill="black"/>
<defs>
<filter id="filter0_f" x="320" y="44.123" width="114.652" height="141.877" filterUnits="userSpaceOnUse" color-interpolation-filters="sRGB">
<feFlood flood-opacity="0" result="BackgroundImageFix"/>
<feBlend mode="normal" in="SourceGraphic" in2="BackgroundImageFix" result="shape"/>
<feGaussianBlur stdDeviation="2" result="effect1_foregroundBlur"/>
</filter>
<filter id="filter1_f" x="320.8" y="40" width="41.139" height="88.1559" filterUnits="userSpaceOnUse" color-interpolation-filters="sRGB">
<feFlood flood-opacity="0" result="BackgroundImageFix"/>
<feBlend mode="normal" in="SourceGraphic" in2="BackgroundImageFix" result="shape"/>
<feGaussianBlur stdDeviation="2" result="effect1_foregroundBlur"/>
</filter>
<filter id="filter2_i" x="178" y="285" width="342" height="275.462" filterUnits="userSpaceOnUse" color-interpolation-filters="sRGB">
<feFlood flood-opacity="0" result="BackgroundImageFix"/>
<feBlend mode="normal" in="SourceGraphic" in2="BackgroundImageFix" result="shape"/>
<feColorMatrix in="SourceAlpha" type="matrix" values="0 0 0 0 0 0 0 0 0 0 0 0 0 0 0 0 0 0 127 0" result="hardAlpha"/>
<feOffset dx="13"/>
<feGaussianBlur stdDeviation="8.5"/>
<feComposite in2="hardAlpha" operator="arithmetic" k2="-1" k3="1"/>
<feColorMatrix type="matrix" values="0 0 0 0 1 0 0 0 0 1 0 0 0 0 1 0 0 0 0.222 0"/>
<feBlend mode="normal" in2="shape" result="effect1_innerShadow"/>
</filter>
<filter id="filter3_f" x="365.25" y="285.039" width="17.5" height="35.5392" filterUnits="userSpaceOnUse" color-interpolation-filters="sRGB">
<feFlood flood-opacity="0" result="BackgroundImageFix"/>
<feBlend mode="normal" in="SourceGraphic" in2="BackgroundImageFix" result="shape"/>
<feGaussianBlur stdDeviation="2" result="effect1_foregroundBlur"/>
</filter>
<filter id="filter4_f" x="351.188" y="414.578" width="34.5625" height="50.25" filterUnits="userSpaceOnUse" color-interpolation-filters="sRGB">
<feFlood flood-opacity="0" result="BackgroundImageFix"/>
<feBlend mode="normal" in="SourceGraphic" in2="BackgroundImageFix" result="shape"/>
<feGaussianBlur stdDeviation="1.5" result="effect1_foregroundBlur"/>
</filter>
<filter id="filter5_f" x="299.812" y="487.828" width="26.9375" height="51.75" filterUnits="userSpaceOnUse" color-interpolation-filters="sRGB">
<feFlood flood-opacity="0" result="BackgroundImageFix"/>
<feBlend mode="normal" in="SourceGraphic" in2="BackgroundImageFix" result="shape"/>
<feGaussianBlur stdDeviation="2" result="effect1_foregroundBlur"/>
</filter>
<filter id="filter6_f" x="226.812" y="299.828" width="22.9375" height="47.75" filterUnits="userSpaceOnUse" color-interpolation-filters="sRGB">
<feFlood flood-opacity="0" result="BackgroundImageFix"/>
<feBlend mode="normal" in="SourceGraphic" in2="BackgroundImageFix" result="shape"/>
<feGaussianBlur stdDeviation="1" result="effect1_foregroundBlur"/>
</filter>
<filter id="filter7_f" x="275.812" y="293.828" width="26.9375" height="51.75" filterUnits="userSpaceOnUse" color-interpolation-filters="sRGB">
<feFlood flood-opacity="0" result="BackgroundImageFix"/>
<feBlend mode="normal" in="SourceGraphic" in2="BackgroundImageFix" result="shape"/>
<feGaussianBlur stdDeviation="2" result="effect1_foregroundBlur"/>
</filter>
<filter id="filter8_f" x="418.812" y="357.828" width="26.9375" height="51.75" filterUnits="userSpaceOnUse" color-interpolation-filters="sRGB">
<feFlood flood-opacity="0" result="BackgroundImageFix"/>
<feBlend mode="normal" in="SourceGraphic" in2="BackgroundImageFix" result="shape"/>
<feGaussianBlur stdDeviation="2" result="effect1_foregroundBlur"/>
</filter>
<filter id="filter9_d" x="336.812" y="450.828" width="27.9375" height="51.75" filterUnits="userSpaceOnUse" color-interpolation-filters="sRGB">
<feFlood flood-opacity="0" result="BackgroundImageFix"/>
<feColorMatrix in="SourceAlpha" type="matrix" values="0 0 0 0 0 0 0 0 0 0 0 0 0 0 0 0 0 0 127 0"/>
<feOffset dx="5" dy="4"/>
<feGaussianBlur stdDeviation="2"/>
<feColorMatrix type="matrix" values="0 0 0 0 0 0 0 0 0 0 0 0 0 0 0 0 0 0 0.25 0"/>
<feBlend mode="normal" in2="BackgroundImageFix" result="effect1_dropShadow"/>
<feBlend mode="normal" in="SourceGraphic" in2="effect1_dropShadow" result="shape"/>
</filter>
<filter id="filter10_f" x="202.812" y="386.828" width="26.9375" height="51.75" filterUnits="userSpaceOnUse" color-interpolation-filters="sRGB">
<feFlood flood-opacity="0" result="BackgroundImageFix"/>
<feBlend mode="normal" in="SourceGraphic" in2="BackgroundImageFix" result="shape"/>
<feGaussianBlur stdDeviation="2" result="effect1_foregroundBlur"/>
</filter>
<filter id="filter11_f" x="284.188" y="444.578" width="32.5625" height="48.25" filterUnits="userSpaceOnUse" color-interpolation-filters="sRGB">
<feFlood flood-opacity="0" result="BackgroundImageFix"/>
<feBlend mode="normal" in="SourceGraphic" in2="BackgroundImageFix" result="shape"/>
<feGaussianBlur stdDeviation="1" result="effect1_foregroundBlur"/>
</filter>
<filter id="filter12_f" x="416.188" y="475.578" width="32.5625" height="48.25" filterUnits="userSpaceOnUse" color-interpolation-filters="sRGB">
<feFlood flood-opacity="0" result="BackgroundImageFix"/>
<feBlend mode="normal" in="SourceGraphic" in2="BackgroundImageFix" result="shape"/>
<feGaussianBlur stdDeviation="1" result="effect1_foregroundBlur"/>
</filter>
<filter id="filter13_d" x="357.188" y="305.578" width="36.5625" height="52.25" filterUnits="userSpaceOnUse" color-interpolation-filters="sRGB">
<feFlood flood-opacity="0" result="BackgroundImageFix"/>
<feColorMatrix in="SourceAlpha" type="matrix" values="0 0 0 0 0 0 0 0 0 0 0 0 0 0 0 0 0 0 127 0"/>
<feOffset dx="3" dy="4"/>
<feGaussianBlur stdDeviation="2"/>
<feColorMatrix type="matrix" values="0 0 0 0 0 0 0 0 0 0 0 0 0 0 0 0 0 0 0.25 0"/>
<feBlend mode="normal" in2="BackgroundImageFix" result="effect1_dropShadow"/>
<feBlend mode="normal" in="SourceGraphic" in2="effect1_dropShadow" result="shape"/>
</filter>
<filter id="filter14_f" x="224.188" y="465.578" width="36.5625" height="52.25" filterUnits="userSpaceOnUse" color-interpolation-filters="sRGB">
<feFlood flood-opacity="0" result="BackgroundImageFix"/>
<feBlend mode="normal" in="SourceGraphic" in2="BackgroundImageFix" result="shape"/>
<feGaussianBlur stdDeviation="2" result="effect1_foregroundBlur"/>
</filter>
<filter id="filter15_f" x="457.188" y="312.578" width="36.5625" height="52.25" filterUnits="userSpaceOnUse" color-interpolation-filters="sRGB">
<feFlood flood-opacity="0" result="BackgroundImageFix"/>
<feBlend mode="normal" in="SourceGraphic" in2="BackgroundImageFix" result="shape"/>
<feGaussianBlur stdDeviation="2" result="effect1_foregroundBlur"/>
</filter>
<filter id="filter16_d" x="455.812" y="350.828" width="27.9375" height="51.75" filterUnits="userSpaceOnUse" color-interpolation-filters="sRGB">
<feFlood flood-opacity="0" result="BackgroundImageFix"/>
<feColorMatrix in="SourceAlpha" type="matrix" values="0 0 0 0 0 0 0 0 0 0 0 0 0 0 0 0 0 0 127 0"/>
<feOffset dx="5" dy="4"/>
<feGaussianBlur stdDeviation="2"/>
<feColorMatrix type="matrix" values="0 0 0 0 0 0 0 0 0 0 0 0 0 0 0 0 0 0 0.25 0"/>
<feBlend mode="normal" in2="BackgroundImageFix" result="effect1_dropShadow"/>
<feBlend mode="normal" in="SourceGraphic" in2="effect1_dropShadow" result="shape"/>
</filter>
<filter id="filter17_f" x="174.057" y="135.503" width="426.926" height="518.796" filterUnits="userSpaceOnUse" color-interpolation-filters="sRGB">
<feFlood flood-opacity="0" result="BackgroundImageFix"/>
<feBlend mode="normal" in="SourceGraphic" in2="BackgroundImageFix" result="shape"/>
<feGaussianBlur stdDeviation="2" result="effect1_foregroundBlur"/>
</filter>
<filter id="filter18_f" x="174" y="161" width="57" height="60" filterUnits="userSpaceOnUse" color-interpolation-filters="sRGB">
<feFlood flood-opacity="0" result="BackgroundImageFix"/>
<feBlend mode="normal" in="SourceGraphic" in2="BackgroundImageFix" result="shape"/>
<feGaussianBlur stdDeviation="2" result="effect1_foregroundBlur"/>
</filter>
</defs>
</svg>
